<svg width="132" height="28" viewBox="0 0 132 28" fill="none" xmlns="http://www.w3.org/2000/svg">
<path d="M17.7602 5.57373C17.9916 5.57373 18.1022 5.85336 17.9331 6.00815C16.4634 7.3501 14.4929 8.1715 12.3279 8.1715C10.1628 8.1715 8.19358 7.35135 6.72395 6.00815C6.55359 5.85336 6.6642 5.57373 6.89685 5.57373H17.7615H17.7602Z" fill="#055866"/>
<path d="M26.339 5.8234V19.967C26.339 20.123 26.194 20.2441 26.0377 20.2129C21.3008 19.2691 17.7373 15.1559 17.7373 10.2262C17.7373 8.60467 18.1225 7.07172 18.8077 5.71229C18.851 5.62741 18.94 5.57373 19.0366 5.57373H26.0847C26.2246 5.57373 26.339 5.68608 26.339 5.8234Z" fill="#10F35E"/>
<path d="M24.8159 22.4262H8.37918C8.1834 22.4262 8.06008 22.2177 8.15797 22.0504C9.84118 19.1905 12.9902 17.2656 16.5969 17.2656C20.2036 17.2656 23.3539 19.1905 25.0371 22.0504C25.135 22.2164 25.0117 22.4262 24.8159 22.4262Z" fill="#055866"/>
<path d="M11.1062 14.5305C11.1062 17.8461 9.33015 20.7547 6.66167 22.3887C6.62099 22.4137 6.57395 22.4262 6.52564 22.4262H5.9027C5.76286 22.4262 5.64844 22.3138 5.64844 22.1765V6.53747C5.64844 6.35022 5.85185 6.22913 6.02093 6.31526C9.04156 7.8557 11.1062 10.9565 11.1062 14.5305Z" fill="#055866"/>
<path d="M120.679 5.57373V19.6723C120.679 19.8384 120.79 19.9982 120.987 20.1168L124.544 22.2476C124.74 22.365 125.006 22.4312 125.285 22.4312H125.291C125.87 22.4312 126.34 22.1503 126.34 21.8045V5.57373H120.68H120.679Z" fill="#055866"/>
<path d="M35.7263 22.4262L42.3676 8.35004L47.9423 20.7809C48.3911 21.7808 49.398 22.4249 50.5104 22.4249H55.124L46.9698 5.57251H41.2489L33.2269 22.4249H35.7251L35.7263 22.4262Z" fill="#055866"/>
<path d="M82.3884 7.26272V19.5762C82.3884 21.088 83.6394 22.4262 85.179 22.4262H88.0521L88.0483 7.26272H95.5808V5.57373H74.9424L76.3574 7.26272H82.3884Z" fill="#055866"/>
<path d="M115.013 17.1133C115.048 17.0958 115.085 17.0758 115.122 17.0571C116.439 16.3493 117.235 14.9686 117.235 13.4931V10.004C117.235 8.77944 116.725 7.59602 115.787 6.79085C115.74 6.7509 115.692 6.71221 115.642 6.67226C114.727 5.94324 113.567 5.57373 112.389 5.57373H99.0261V21.0592C99.0261 21.8245 99.6579 22.4461 100.438 22.4461H104.688V17.4728H108.86L114.387 22.4461H117.235L111.673 17.4728H113.426C114.217 17.4728 114.522 17.3579 115.013 17.1133ZM104.663 15.8138V7.4612H112.447C113.655 7.4612 114.753 8.16776 115.214 9.26379C115.215 9.26878 115.217 9.27377 115.219 9.27752C115.245 9.34243 115.258 9.40735 115.258 9.47725V13.4756C115.258 13.7191 115.231 13.9662 115.154 14.1984C114.987 14.7065 114.677 15.0598 114.354 15.3044C113.897 15.6477 113.328 15.8138 112.752 15.8138H104.663Z" fill="#055866"/>
<path d="M69.908 5.57373L71.4984 7.49865H65.4546C65.0757 7.49865 64.6994 7.59353 64.3829 7.797C64.0663 8.00048 63.7701 8.31631 63.7091 8.82438C63.5909 9.80681 64.81 10.8542 65.0885 11.0789C65.1482 11.1275 65.208 11.1775 65.2664 11.2274L68.8871 14.3208C68.8871 14.3208 71.2327 16.5802 71.2988 17.9709C71.2988 17.9896 71.3001 18.0083 71.3013 18.0283C71.4056 20.3352 69.5978 22.3363 67.2471 22.4224C67.1899 22.4249 67.1315 22.4262 67.0717 22.4262H59.2608C58.8692 22.4262 58.5527 22.1153 58.5527 21.7308V20.7534H64.8596C64.8596 20.7534 66.0941 20.7946 66.3776 19.6574C66.525 19.0682 66.3165 18.4477 65.869 18.0295L59.6867 12.2373C58.9773 11.5732 58.5361 10.6669 58.5094 9.7057C58.4916 9.05657 58.6505 8.31506 59.1947 7.58604C60.6999 5.56499 62.6692 5.58746 62.6692 5.58746L69.908 5.57373Z" fill="#055866"/>
</svg>
