<svg width="936" height="103" viewBox="0 0 936 103" fill="none" xmlns="http://www.w3.org/2000/svg">
<path d="M0 101.393L34.5568 1.60728H58.2221L92.7788 101.393H72.8785L65.752 79.9623H27.0269L19.7659 101.393H0ZM32.2709 63.8895H60.5079L43.8346 14.1977H48.9442L32.2709 63.8895Z" fill="#DBDBDB" fill-opacity="0.12"/>
<path d="M130.282 103C122.483 103 115.671 101.169 109.844 97.5085C104.107 93.7581 100.163 88.713 98.0113 82.3732L111.189 76.078C113.071 80.1855 115.671 83.4001 118.987 85.7217C122.394 88.0433 126.159 89.2042 130.282 89.2042C133.509 89.2042 136.064 88.4898 137.947 87.0611C139.829 85.6324 140.77 83.7573 140.77 81.4356C140.77 80.0069 140.367 78.8461 139.56 77.9532C138.843 76.971 137.812 76.1673 136.467 75.5423C135.212 74.8279 133.823 74.2475 132.299 73.801L120.332 70.4525C114.147 68.6667 109.441 65.9432 106.213 62.2822C103.076 58.6212 101.507 54.2904 101.507 49.29C101.507 44.8253 102.628 40.941 104.869 37.6372C107.2 34.244 110.382 31.6099 114.416 29.7347C118.539 27.8596 123.245 26.922 128.534 26.922C135.437 26.922 141.532 28.5739 146.821 31.8778C152.11 35.1816 155.875 39.8249 158.116 45.8075L144.67 52.1027C143.415 48.7989 141.308 46.1647 138.35 44.2003C135.392 42.2358 132.075 41.2536 128.4 41.2536C125.442 41.2536 123.111 41.9233 121.408 43.2627C119.705 44.6021 118.853 46.3433 118.853 48.4863C118.853 49.8257 119.211 50.9866 119.929 51.9688C120.646 52.951 121.632 53.7547 122.887 54.3797C124.231 55.0048 125.755 55.5852 127.458 56.1209L139.157 59.6034C145.163 61.3892 149.779 64.068 153.006 67.6398C156.323 71.2115 157.981 75.5869 157.981 80.7659C157.981 85.1413 156.816 89.0256 154.485 92.4187C152.155 95.7226 148.928 98.3121 144.804 100.187C140.681 102.062 135.84 103 130.282 103Z" fill="#DBDBDB" fill-opacity="0.12"/>
<path d="M204.865 102.196C196.618 102.196 190.208 99.964 185.636 95.4993C181.154 90.9454 178.913 84.5609 178.913 76.3459V44.2003H166.274V28.5293H167.619C171.204 28.5293 173.983 27.5917 175.955 25.7165C177.927 23.8414 178.913 21.1179 178.913 17.5462V11.9207H196.528V28.5293H213.336V44.2003H196.528V75.4083C196.528 77.8192 196.931 79.873 197.738 81.5696C198.634 83.2661 199.979 84.5609 201.772 85.4538C203.654 86.3468 206.03 86.7932 208.898 86.7932C209.526 86.7932 210.243 86.7486 211.05 86.6593C211.946 86.57 212.798 86.4807 213.605 86.3914V101.393C212.35 101.571 210.915 101.75 209.302 101.928C207.688 102.107 206.209 102.196 204.865 102.196Z" fill="#DBDBDB" fill-opacity="0.12"/>
<path d="M227.062 101.393V28.5293H243.601V44.736L242.257 42.3251C243.96 36.8782 246.604 33.0832 250.19 30.9402C253.865 28.7971 258.258 27.7256 263.367 27.7256H267.67V43.2627H261.35C256.33 43.2627 252.296 44.8253 249.249 47.9506C246.201 50.9866 244.677 55.2726 244.677 60.8088V101.393H227.062Z" fill="#DBDBDB" fill-opacity="0.12"/>
<path d="M277.354 101.393V28.5293H294.969V101.393H277.354ZM277.354 20.3589V1.60728H294.969V20.3589H277.354Z" fill="#DBDBDB" fill-opacity="0.12"/>
<path d="M372.377 103C366.012 103 360.096 101.839 354.628 99.5175C349.249 97.1959 344.588 93.9814 340.644 89.8739C336.789 85.6771 333.966 80.8106 332.173 75.2744L347.367 68.7113C349.787 74.4261 353.283 78.9354 357.855 82.2393C362.427 85.4538 367.581 87.0611 373.318 87.0611C376.545 87.0611 379.324 86.57 381.655 85.5878C384.075 84.5162 385.913 83.0876 387.168 81.3017C388.512 79.5158 389.185 77.3728 389.185 74.8726C389.185 71.9259 388.288 69.5149 386.495 67.6398C384.792 65.6753 382.193 64.1573 378.697 63.0858L359.469 56.9246C351.67 54.5137 345.798 50.8973 341.854 46.0754C337.91 41.2536 335.938 35.5834 335.938 29.065C335.938 23.3502 337.327 18.3052 340.106 13.9298C342.975 9.5544 346.919 6.16125 351.939 3.75032C357.048 1.25011 362.875 0 369.419 0C375.425 0 380.938 1.07152 385.958 3.21456C390.978 5.26831 395.28 8.17035 398.866 11.9207C402.541 15.5817 405.275 19.9124 407.068 24.9129L392.008 31.6099C390.036 26.6094 387.078 22.7698 383.134 20.091C379.19 17.3229 374.618 15.9389 369.419 15.9389C366.371 15.9389 363.682 16.4746 361.351 17.5462C359.02 18.5284 357.183 19.9571 355.838 21.8322C354.583 23.6181 353.956 25.7612 353.956 28.2614C353.956 31.0295 354.852 33.485 356.645 35.6281C358.438 37.6818 361.172 39.2891 364.847 40.4499L383.268 46.2094C391.246 48.7989 397.208 52.3706 401.152 56.9246C405.186 61.4785 407.203 67.104 407.203 73.801C407.203 79.5158 405.724 84.5609 402.765 88.9363C399.807 93.3117 395.729 96.7495 390.529 99.2497C385.33 101.75 379.279 103 372.377 103Z" fill="#DBDBDB" fill-opacity="0.12"/>
<path d="M457.957 103C450.786 103 444.242 101.348 438.325 98.0442C432.499 94.7404 427.837 90.231 424.341 84.5163C420.935 78.8015 419.232 72.283 419.232 64.961C419.232 57.6389 420.935 51.1205 424.341 45.4057C427.837 39.6909 432.499 35.1816 438.325 31.8778C444.152 28.5739 450.696 26.922 457.957 26.922C465.128 26.922 471.627 28.5739 477.454 31.8778C483.28 35.1816 487.897 39.6909 491.303 45.4057C494.799 51.0312 496.547 57.5496 496.547 64.961C496.547 72.283 494.799 78.8015 491.303 84.5163C487.807 90.231 483.146 94.7404 477.319 98.0442C471.493 101.348 465.038 103 457.957 103ZM457.957 86.9272C461.901 86.9272 465.352 85.9896 468.31 84.1144C471.358 82.2393 473.734 79.6498 475.437 76.3459C477.23 72.9528 478.126 69.1578 478.126 64.961C478.126 60.6749 477.23 56.9246 475.437 53.71C473.734 50.4062 471.358 47.8166 468.31 45.9415C465.352 43.977 461.901 42.9948 457.957 42.9948C453.923 42.9948 450.382 43.977 447.334 45.9415C444.286 47.8166 441.866 50.4062 440.073 53.71C438.37 56.9246 437.519 60.6749 437.519 64.961C437.519 69.1578 438.37 72.9528 440.073 76.3459C441.866 79.6498 444.286 82.2393 447.334 84.1144C450.382 85.9896 453.923 86.9272 457.957 86.9272Z" fill="#DBDBDB" fill-opacity="0.12"/>
<path d="M509.905 101.393V0H527.52V101.393H509.905Z" fill="#DBDBDB" fill-opacity="0.12"/>
<path d="M569.869 103C564.222 103 559.291 101.75 555.078 99.2497C550.955 96.7495 547.773 93.267 545.532 88.8023C543.38 84.3377 542.304 79.114 542.304 73.1313V28.5293H559.919V71.658C559.919 74.694 560.502 77.3728 561.667 79.6944C562.922 81.9267 564.67 83.7126 566.911 85.052C569.242 86.3021 571.841 86.9272 574.71 86.9272C577.578 86.9272 580.133 86.3021 582.374 85.052C584.615 83.7126 586.363 81.8821 587.618 79.5605C588.873 77.2388 589.501 74.4707 589.501 71.2562V28.5293H607.115V101.393H590.442V87.0611L591.921 89.606C590.218 94.0707 587.394 97.4192 583.45 99.6515C579.595 101.884 575.068 103 569.869 103Z" fill="#DBDBDB" fill-opacity="0.12"/>
<path d="M656.836 102.196C648.589 102.196 642.179 99.964 637.608 95.4993C633.126 90.9454 630.884 84.5609 630.884 76.3459V44.2003H618.245V28.5293H619.59C623.175 28.5293 625.954 27.5917 627.926 25.7165C629.898 23.8414 630.884 21.1179 630.884 17.5462V11.9207H648.499V28.5293H665.307V44.2003H648.499V75.4083C648.499 77.8192 648.902 79.873 649.709 81.5696C650.606 83.2661 651.95 84.5609 653.743 85.4538C655.626 86.3468 658.001 86.7932 660.87 86.7932C661.497 86.7932 662.214 86.7486 663.021 86.6593C663.917 86.57 664.769 86.4807 665.576 86.3914V101.393C664.321 101.571 662.886 101.75 661.273 101.928C659.659 102.107 658.18 102.196 656.836 102.196Z" fill="#DBDBDB" fill-opacity="0.12"/>
<path d="M679.034 101.393V28.5293H696.648V101.393H679.034ZM679.034 20.3589V1.60728H696.648V20.3589H679.034Z" fill="#DBDBDB" fill-opacity="0.12"/>
<path d="M748.679 103C741.507 103 734.963 101.348 729.047 98.0442C723.22 94.7404 718.559 90.231 715.063 84.5163C711.657 78.8015 709.953 72.283 709.953 64.961C709.953 57.6389 711.657 51.1205 715.063 45.4057C718.559 39.6909 723.22 35.1816 729.047 31.8778C734.874 28.5739 741.418 26.922 748.679 26.922C755.85 26.922 762.349 28.5739 768.175 31.8778C774.002 35.1816 778.619 39.6909 782.025 45.4057C785.521 51.0312 787.269 57.5496 787.269 64.961C787.269 72.283 785.521 78.8015 782.025 84.5163C778.529 90.231 773.868 94.7404 768.041 98.0442C762.214 101.348 755.76 103 748.679 103ZM748.679 86.9272C752.623 86.9272 756.074 85.9896 759.032 84.1144C762.08 82.2393 764.455 79.6498 766.159 76.3459C767.951 72.9528 768.848 69.1578 768.848 64.961C768.848 60.6749 767.951 56.9246 766.159 53.71C764.455 50.4062 762.08 47.8166 759.032 45.9415C756.074 43.977 752.623 42.9948 748.679 42.9948C744.645 42.9948 741.104 43.977 738.056 45.9415C735.008 47.8166 732.588 50.4062 730.795 53.71C729.092 56.9246 728.24 60.6749 728.24 64.961C728.24 69.1578 729.092 72.9528 730.795 76.3459C732.588 79.6498 735.008 82.2393 738.056 84.1144C741.104 85.9896 744.645 86.9272 748.679 86.9272Z" fill="#DBDBDB" fill-opacity="0.12"/>
<path d="M800.627 101.393V28.5293H817.166V42.8609L815.821 40.316C817.525 35.9406 820.303 32.6368 824.158 30.4044C828.102 28.0828 832.674 26.922 837.873 26.922C843.252 26.922 848.003 28.0828 852.126 30.4044C856.339 32.7261 859.611 35.9853 861.942 40.1821C864.273 44.2896 865.438 49.0668 865.438 54.5136V101.393H847.823V58.6658C847.823 55.4512 847.196 52.6831 845.941 50.3615C844.686 48.0399 842.938 46.254 840.697 45.0039C838.545 43.6645 835.991 42.9948 833.032 42.9948C830.164 42.9948 827.609 43.6645 825.368 45.0039C823.127 46.254 821.379 48.0399 820.124 50.3615C818.869 52.6831 818.242 55.4512 818.242 58.6658V101.393H800.627Z" fill="#DBDBDB" fill-opacity="0.12"/>
<path d="M908.166 103C900.368 103 893.555 101.169 887.728 97.5085C881.991 93.7581 878.047 88.713 875.895 82.3732L889.073 76.078C890.955 80.1855 893.555 83.4001 896.871 85.7217C900.278 88.0433 904.043 89.2042 908.166 89.2042C911.393 89.2042 913.948 88.4898 915.831 87.0611C917.713 85.6324 918.654 83.7573 918.654 81.4356C918.654 80.0069 918.251 78.8461 917.444 77.9532C916.727 76.971 915.696 76.1673 914.352 75.5423C913.097 74.8279 911.707 74.2475 910.183 73.801L898.216 70.4525C892.031 68.6667 887.325 65.9432 884.098 62.2822C880.96 58.6212 879.391 54.2904 879.391 49.29C879.391 44.8253 880.512 40.941 882.753 37.6372C885.084 34.244 888.266 31.6099 892.3 29.7347C896.423 27.8596 901.129 26.922 906.418 26.922C913.321 26.922 919.416 28.5739 924.705 31.8778C929.994 35.1816 933.759 39.8249 936 45.8075L922.554 52.1027C921.299 48.7989 919.192 46.1647 916.234 44.2003C913.276 42.2358 909.959 41.2536 906.284 41.2536C903.326 41.2536 900.995 41.9233 899.292 43.2627C897.589 44.6021 896.737 46.3433 896.737 48.4863C896.737 49.8257 897.096 50.9866 897.813 51.9688C898.53 52.951 899.516 53.7547 900.771 54.3797C902.116 55.0048 903.639 55.5852 905.343 56.1209L917.041 59.6034C923.047 61.3892 927.663 64.068 930.89 67.6398C934.207 71.2115 935.865 75.5869 935.865 80.7659C935.865 85.1413 934.7 89.0256 932.369 92.4187C930.039 95.7226 926.812 98.3121 922.688 100.187C918.565 102.062 913.724 103 908.166 103Z" fill="#DBDBDB" fill-opacity="0.12"/>
</svg>
