<svg width="148" height="14" viewBox="0 0 148 14" fill="none" xmlns="http://www.w3.org/2000/svg">
<path d="M62.8359 9.88547V8.70331H63.6962V9.88547H62.8359ZM62.8359 5.30719V4.125H63.6962V5.30719H62.8359Z" fill="#1D1D1D"/>
<path d="M56.9096 12.2499C56.7948 12.2499 56.6766 12.2391 56.5547 12.2177C56.44 12.2033 56.3253 12.1746 56.2106 12.1317V11.3794C56.2823 11.3865 56.3719 11.3973 56.4794 11.4116C56.5942 11.4331 56.7088 11.4438 56.8236 11.4438C57.1748 11.4438 57.4437 11.3686 57.63 11.2182C57.8164 11.0749 57.9992 10.7955 58.1784 10.3798L58.544 9.52007L58.5226 10.2294L56.0816 4.125H56.9526L58.9526 9.16543H58.7269L60.7162 4.125H61.6087L58.9742 10.6164C58.8594 10.8957 58.7125 11.1609 58.5333 11.4116C58.3613 11.6624 58.1425 11.863 57.8774 12.0135C57.6121 12.1711 57.2895 12.2499 56.9096 12.2499Z" fill="#1D1D1D"/>
<path d="M52.6382 10.0146C52.1435 10.0146 51.6955 9.90351 51.294 9.68144C50.8997 9.45219 50.6022 9.12975 50.4015 8.71419L50.5305 8.59597V9.88566H49.7241V1.75H50.5305V5.4148L50.4015 5.18911C50.6309 4.8237 50.9355 4.53352 51.3155 4.31858C51.7026 4.10364 52.1435 3.99617 52.6382 3.99617C53.183 3.99617 53.6669 4.12871 54.0898 4.39381C54.5199 4.65175 54.8568 5.0064 55.1006 5.45779C55.3515 5.90917 55.4769 6.42504 55.4769 7.00538C55.4769 7.57857 55.3515 8.09443 55.1006 8.55299C54.8568 9.00436 54.5199 9.36259 54.0898 9.62771C53.6669 9.88566 53.183 10.0146 52.6382 10.0146ZM52.5951 9.20859C52.9822 9.20859 53.3264 9.11181 53.6274 8.91835C53.9357 8.72494 54.1759 8.46342 54.3478 8.13384C54.5271 7.79709 54.6167 7.42095 54.6167 7.00538C54.6167 6.58266 54.5271 6.20651 54.3478 5.87693C54.1759 5.54734 53.9357 5.28583 53.6274 5.09238C53.3264 4.89893 52.9822 4.80221 52.5951 4.80221C52.208 4.80221 51.8568 4.89893 51.5413 5.09238C51.233 5.28583 50.9857 5.55093 50.7993 5.88767C50.6201 6.21725 50.5305 6.58983 50.5305 7.00538C50.5305 7.42095 50.6201 7.79709 50.7993 8.13384C50.9857 8.46342 51.233 8.72494 51.5413 8.91835C51.8568 9.11181 52.208 9.20859 52.5951 9.20859Z" fill="#1D1D1D"/>
<path d="M43.3269 10.0146C42.7892 10.0146 42.3054 9.88566 41.8753 9.62771C41.4451 9.36259 41.1046 9.00436 40.8537 8.55299C40.61 8.09443 40.4881 7.57857 40.4881 7.00538C40.4881 6.42504 40.61 5.90917 40.8537 5.45779C41.1046 5.0064 41.4416 4.65175 41.8645 4.39381C42.2946 4.12871 42.7821 3.99617 43.3269 3.99617C43.8216 3.99617 44.2625 4.10364 44.6495 4.31858C45.0367 4.53352 45.3414 4.8237 45.5636 5.18911L45.4345 5.4148V1.75H46.241V9.88566H45.4345V8.59597L45.5636 8.71419C45.3628 9.12975 45.0618 9.45219 44.6603 9.68144C44.266 9.90351 43.8216 10.0146 43.3269 10.0146ZM43.3699 9.20859C43.757 9.20859 44.1047 9.11181 44.413 8.91835C44.7284 8.72494 44.9757 8.46342 45.155 8.13384C45.3414 7.79709 45.4345 7.42095 45.4345 7.00538C45.4345 6.58983 45.3414 6.21725 45.155 5.88767C44.9757 5.55093 44.7284 5.28583 44.413 5.09238C44.1047 4.89893 43.757 4.80221 43.3699 4.80221C42.99 4.80221 42.6459 4.89893 42.3376 5.09238C42.0294 5.28583 41.7856 5.54734 41.6064 5.87693C41.4344 6.20651 41.3484 6.58266 41.3484 7.00538C41.3484 7.42095 41.4344 7.79709 41.6064 8.13384C41.7856 8.46342 42.0258 8.72494 42.3269 8.91835C42.6351 9.11181 42.9828 9.20859 43.3699 9.20859Z" fill="#1D1D1D"/>
<path d="M36.7328 10.0145C36.1951 10.0145 35.7076 9.88556 35.2704 9.62761C34.8402 9.36257 34.4997 9.00067 34.2488 8.54217C33.9979 8.08361 33.8724 7.56417 33.8724 6.98382C33.8724 6.40346 33.9943 5.89119 34.238 5.44697C34.4818 4.99558 34.8116 4.64093 35.2273 4.38299C35.6503 4.12506 36.1234 3.99609 36.6468 3.99609C37.0625 3.99609 37.4317 4.07491 37.7543 4.23254C38.0841 4.38299 38.3637 4.59077 38.5931 4.85587C38.8225 5.1138 38.9981 5.40756 39.12 5.73714C39.2418 6.05955 39.3027 6.39272 39.3027 6.73663C39.3027 6.80828 39.2992 6.89067 39.292 6.98382C39.2848 7.06979 39.2741 7.15935 39.2597 7.25249H34.3886V6.5002H38.7974L38.4102 6.82261C38.4748 6.42854 38.4282 6.07746 38.2705 5.76939C38.1199 5.45413 37.9013 5.20695 37.6145 5.02782C37.3278 4.84154 37.0052 4.7484 36.6468 4.7484C36.2883 4.7484 35.9549 4.84154 35.6467 5.02782C35.3456 5.21411 35.1091 5.47562 34.937 5.81238C34.7649 6.14195 34.6968 6.53602 34.7327 6.99456C34.6968 7.45311 34.7685 7.85434 34.9478 8.19825C35.1341 8.535 35.385 8.79654 35.7004 8.98282C36.023 9.16911 36.3672 9.26221 36.7328 9.26221C37.1557 9.26221 37.5106 9.16194 37.7973 8.9613C38.0841 8.76066 38.317 8.50992 38.4963 8.209L39.1845 8.5744C39.0698 8.83232 38.8941 9.07234 38.6576 9.2945C38.421 9.5094 38.1378 9.68492 37.8081 9.82107C37.4855 9.95005 37.127 10.0145 36.7328 10.0145Z" fill="#1D1D1D"/>
<path d="M30.4755 9.88557V4.12504H31.282V5.07079L31.1745 4.93108C31.3107 4.65881 31.515 4.44387 31.7874 4.28625C32.067 4.12862 32.4039 4.0498 32.7982 4.0498H33.1638V4.85585H32.6584C32.2426 4.85585 31.9093 4.98481 31.6584 5.24274C31.4075 5.50068 31.282 5.86609 31.282 6.33896V9.88557H30.4755Z" fill="#1D1D1D"/>
<path d="M26.4837 10.0145C25.946 10.0145 25.4586 9.88556 25.0213 9.62761C24.5912 9.36257 24.2507 9.00067 23.9997 8.54217C23.7489 8.08361 23.6234 7.56417 23.6234 6.98382C23.6234 6.40346 23.7452 5.89119 23.989 5.44697C24.2327 4.99558 24.5625 4.64093 24.9783 4.38299C25.4012 4.12506 25.8744 3.99609 26.3977 3.99609C26.8135 3.99609 27.1827 4.07491 27.5053 4.23254C27.835 4.38299 28.1146 4.59077 28.344 4.85587C28.5734 5.1138 28.749 5.40756 28.8709 5.73714C28.9928 6.05955 29.0537 6.39272 29.0537 6.73663C29.0537 6.80828 29.0501 6.89067 29.043 6.98382C29.0358 7.06979 29.0251 7.15935 29.0107 7.25249H24.1396V6.5002H28.5483L28.1612 6.82261C28.2257 6.42854 28.1791 6.07746 28.0214 5.76939C27.8709 5.45413 27.6522 5.20695 27.3655 5.02782C27.0787 4.84154 26.7561 4.7484 26.3977 4.7484C26.0392 4.7484 25.7059 4.84154 25.3977 5.02782C25.0965 5.21411 24.86 5.47562 24.6879 5.81238C24.5158 6.14195 24.4477 6.53602 24.4836 6.99456C24.4477 7.45311 24.5195 7.85434 24.6987 8.19825C24.8851 8.535 25.136 8.79654 25.4514 8.98282C25.774 9.16911 26.1181 9.26221 26.4837 9.26221C26.9067 9.26221 27.2615 9.16194 27.5483 8.9613C27.835 8.76066 28.068 8.50992 28.2472 8.209L28.9354 8.5744C28.8207 8.83232 28.645 9.07234 28.4085 9.2945C28.1719 9.5094 27.8888 9.68492 27.559 9.82107C27.2364 9.95005 26.8779 10.0145 26.4837 10.0145Z" fill="#1D1D1D"/>
<path d="M16.6649 9.88547L14.6863 4.125H15.6003L17.2348 9.16543H16.9122L18.4499 4.125H19.2564L20.794 9.16543H20.4715L22.1166 4.125H23.0199L21.0414 9.88547H20.2349L18.7402 4.95254H18.966L17.4713 9.88547H16.6649Z" fill="#1D1D1D"/>
<path d="M11.1539 10.0145C10.6091 10.0145 10.1144 9.88556 9.66993 9.62761C9.22547 9.36257 8.87061 9.00426 8.60538 8.55291C8.3473 8.09436 8.21826 7.57491 8.21826 6.99456C8.21826 6.42138 8.3473 5.9091 8.60538 5.45771C8.86345 5.00633 9.21114 4.65167 9.64838 4.39374C10.0928 4.12864 10.5947 3.99609 11.1539 3.99609C11.713 3.99609 12.2112 4.12506 12.6486 4.38299C13.093 4.64093 13.4406 4.99558 13.6916 5.44697C13.9497 5.89835 14.0787 6.41422 14.0787 6.99456C14.0787 7.58208 13.9461 8.10511 13.6808 8.56366C13.4156 9.01502 13.0607 9.36966 12.6163 9.62761C12.179 9.88556 11.6915 10.0145 11.1539 10.0145ZM11.1539 9.20849C11.541 9.20849 11.8886 9.1118 12.1969 8.91834C12.5124 8.72487 12.7597 8.45977 12.9389 8.12302C13.1253 7.78628 13.2185 7.41013 13.2185 6.99456C13.2185 6.57901 13.1253 6.20643 12.9389 5.87685C12.7597 5.54728 12.5124 5.28576 12.1969 5.09231C11.8886 4.89886 11.541 4.80214 11.1539 4.80214C10.7667 4.80214 10.4155 4.89886 10.1001 5.09231C9.79179 5.28576 9.5445 5.54728 9.3581 5.87685C9.17171 6.20643 9.07852 6.57901 9.07852 6.99456C9.07852 7.41013 9.17171 7.78628 9.3581 8.12302C9.5445 8.45977 9.79179 8.72487 10.1001 8.91834C10.4155 9.1118 10.7667 9.20849 11.1539 9.20849Z" fill="#1D1D1D"/>
<path d="M1.87341 9.88557V1.87891H4.62621C5.14952 1.87891 5.60832 1.9828 6.00261 2.19058C6.39689 2.39119 6.70156 2.67779 6.91663 3.05036C7.13885 3.41576 7.24997 3.84207 7.24997 4.32927C7.24997 4.81648 7.13885 5.24278 6.91663 5.60819C6.70156 5.9736 6.39689 6.26019 6.00261 6.46797C5.6155 6.66858 5.1567 6.76889 4.62621 6.76889H2.73366V9.88557H1.87341ZM2.73366 5.96285H4.66923C5.01333 5.96285 5.31441 5.89837 5.57249 5.7694C5.83056 5.63327 6.03129 5.4434 6.17466 5.19979C6.31803 4.94903 6.38972 4.65527 6.38972 4.31853C6.38972 3.98178 6.31803 3.69161 6.17466 3.448C6.03129 3.2044 5.83056 3.01811 5.57249 2.88915C5.31441 2.75301 5.01333 2.68495 4.66923 2.68495H2.73366V5.96285Z" fill="#1D1D1D"/>
<mask id="mask0_151_628" style="mask-type:luminance" maskUnits="userSpaceOnUse" x="71" y="1" width="76" height="12">
<path d="M146.127 1.75H71.1899V12.25H146.127V1.75Z" fill="white"/>
</mask>
<g mask="url(#mask0_151_628)">
<path d="M78.7101 1.75C78.8537 1.75 78.9224 1.92402 78.8167 2.02035C77.9041 2.85547 76.6807 3.36664 75.3364 3.36664C73.9921 3.36664 72.7694 2.85625 71.8569 2.02035C71.7512 1.92402 71.8198 1.75 71.9634 1.75H78.7101Z" fill="#055866"/>
<path d="M84.0366 1.90537V10.7072C84.0366 10.8042 83.9466 10.8797 83.8496 10.8602C80.9084 10.2729 78.6958 7.71315 78.6958 4.64535C78.6958 3.63621 78.935 2.68223 79.3605 1.83623C79.3873 1.78341 79.4425 1.75 79.5026 1.75H83.8788C83.9655 1.75 84.0366 1.81992 84.0366 1.90537Z" fill="#10F35E"/>
<path d="M83.091 12.2374H72.8854C72.7639 12.2374 72.6873 12.1076 72.7481 12.0036C73.7932 10.2238 75.7484 9.02588 77.9879 9.02588C80.2273 9.02588 82.1833 10.2238 83.2284 12.0036C83.2892 12.1068 83.2126 12.2374 83.091 12.2374Z" fill="#055866"/>
<path d="M74.5786 7.32395C74.5786 9.38726 73.4758 11.1974 71.819 12.2143C71.7938 12.2298 71.7645 12.2376 71.7346 12.2376H71.3477C71.2609 12.2376 71.1899 12.1677 71.1899 12.0822V2.34973C71.1899 2.2332 71.3162 2.15784 71.4212 2.21144C73.2966 3.17009 74.5786 5.0998 74.5786 7.32395Z" fill="#055866"/>
<path d="M142.612 1.75V10.5238C142.612 10.6271 142.681 10.7266 142.803 10.8004L145.012 12.1264C145.134 12.1995 145.299 12.2406 145.472 12.2406H145.477C145.835 12.2406 146.128 12.0659 146.128 11.8507V1.75H142.612Z" fill="#055866"/>
<path d="M89.8652 12.2376L93.9884 3.47773L97.4505 11.2137C97.7287 11.836 98.3544 12.2368 99.0448 12.2368H101.909L96.8473 1.75H93.295L88.3141 12.2376H89.8652Z" fill="#055866"/>
<path d="M118.837 2.80109V10.464C118.837 11.4048 119.612 12.1669 120.568 12.1669H122.352V2.80109H127.029V1.75H114.215L115.093 2.80109H118.837Z" fill="#055866"/>
<path d="M139.094 8.9313C139.116 8.92036 139.139 8.90794 139.162 8.8963C139.98 8.45583 140.474 7.59663 140.474 6.67839V4.50706C140.474 3.74496 140.158 3.00851 139.575 2.50743C139.545 2.48258 139.515 2.4585 139.485 2.43364C138.917 1.97995 138.196 1.75 137.465 1.75H129.168V11.3869C129.168 11.8632 129.56 12.25 130.045 12.25H132.684V9.15504H135.274L138.706 12.25H140.474L137.021 9.15504H138.109C138.6 9.15504 138.789 9.08355 139.094 8.9313ZM132.668 8.12255V2.92461H137.501C138.251 2.92461 138.934 3.36431 139.219 4.04639C139.219 4.0495 139.221 4.05261 139.222 4.05493C139.239 4.09533 139.247 4.13573 139.247 4.17924V6.66751C139.247 6.81899 139.23 6.97281 139.182 7.1173C139.079 7.43348 138.886 7.65334 138.685 7.8056C138.402 8.01923 138.048 8.12255 137.691 8.12255H132.668Z" fill="#055866"/>
<path d="M111.089 1.75L112.076 2.94791H108.324C108.089 2.94791 107.855 3.00695 107.658 3.13358C107.461 3.26021 107.278 3.45676 107.24 3.77294C107.166 4.38432 107.923 5.03611 108.096 5.17594C108.134 5.20623 108.17 5.23731 108.207 5.26838L110.455 7.19344C110.455 7.19344 111.911 8.59955 111.953 9.46496C111.953 9.4766 111.953 9.48824 111.954 9.50066C112.018 10.9364 110.896 12.1817 109.437 12.2352C109.401 12.2368 109.365 12.2376 109.328 12.2376H104.478C104.235 12.2376 104.038 12.0441 104.038 11.8049V11.1966H107.954C107.954 11.1966 108.721 11.2222 108.896 10.5145C108.988 10.1478 108.859 9.76176 108.58 9.50145L104.742 5.89686C104.302 5.48357 104.028 4.91957 104.011 4.3214C104 3.91743 104.099 3.45598 104.436 3.00229C105.371 1.74457 106.594 1.75855 106.594 1.75855L111.089 1.75Z" fill="#055866"/>
</g>
</svg>
